<svg width="27" height="23" viewBox="0 0 27 23" fill="none" xmlns="http://www.w3.org/2000/svg">
<path d="M12.013 17.9C12.013 19.212 10.906 20.155 8.446 20.155C6.888 20.155 6.15 19.786 5.74 19.499C6.437 18.884 6.929 18.023 6.929 16.998C6.929 15.194 5.453 13.718 3.69 13.718C1.845 13.718 0.41 15.194 0.41 17.08C0.41 19.868 3.731 22.41 9.635 22.41C15.211 22.41 18.532 20.114 18.532 16.26C18.532 9.372 7.913 8.306 7.913 4.493C7.913 3.304 8.979 2.32 10.865 2.32C12.054 2.32 13.161 2.689 13.489 3.058C12.833 3.55 12.423 4.411 12.423 5.313C12.423 6.912 13.694 8.183 15.334 8.183C16.933 8.183 18.204 6.912 18.204 5.231C18.204 2.812 15.498 0.310998 10.127 0.310998C4.879 0.310998 1.435 2.648 1.435 6.338C1.435 12.652 12.013 13.964 12.013 17.9ZM23.8907 22.093C25.4097 21.473 26.1227 19.737 25.5027 18.218C25.0067 17.102 23.9217 16.42 22.7747 16.42C22.3717 16.42 21.9997 16.482 21.6277 16.637C20.1087 17.257 19.3957 18.993 20.0157 20.481C20.4807 21.628 21.5967 22.31 22.7437 22.31C23.1467 22.31 23.5187 22.248 23.8907 22.093Z" fill="white"/>
</svg>
